<svg version="1" xmlns="http://www.w3.org/2000/svg" width="410.667" height="410.667" viewBox="0 0 308.000000 308.000000"><path d="M6 74v74h50v-7.3c0-3.9.1-22.8.1-41.8V64.3l4.9-5.2c2.8-2.8 5.2-5.1 5.5-5.1.3 0 .5 21.1.5 47v47h50V64.1l5-5.1c2.8-2.7 5.3-5 5.5-5 .3 0 .5 21.3.5 47.4v47.4l5 5.2c2.8 2.9 5 5.4 5 5.6 0 .2-16 .4-35.5.4H67v148h94.9l8-7.8 8.1-7.8V0H107.7l-7.4 7.5c-4.1 4.1-7.9 7.5-8.5 7.5-.6 0-4.4-3.4-8.4-7.5L76.1 0H6v74zm122 154.6v26.7l-5.5 5.5-5.5 5.5V202h11v26.6zM190 29.1v29.1l8 7.9 8 7.9-8 8-8 8.1V148h50.5l-.3-26c-.1-14.3 0-26 .3-26 .2 0 2.7 2.3 5.5 5.1l5 5v43.1l5.5 5.4 5.6 5.4H190v148h95.1l7.9-7.9 8-7.8v-42.6l-7.9-7.9-7.9-7.8 7.9-7.9 7.9-7.9V89.7l-7.9-7.8-8-7.9 8-7.8 7.9-7.9V0h-50v53.2l-5.6-5.7-5.5-5.7.1-11.1c.1-6.2.1-15.6.1-21L240 0h-50v29.1zm61 178.4c0 5.4-.2 5.8-5 10.5-2.7 2.8-5.1 5-5.4 5-.3 0-.5-4.7-.5-10.5V202H251v5.5zm-2.7 41.4l2.7.1v17.2l-5.4 5.4-5.5 5.5v-14.3l-.1-14.4 2.7.2c1.6.1 4 .3 5.6.3z"/></svg>