<svg version="1" xmlns="http://www.w3.org/2000/svg" width="346.667" height="346.667" viewBox="0 0 260.000000 260.000000"><path d="M5 8.4C5 9 38.9 196.2 39.5 198.5c.2 1.2 1.8 2.5 3.7 3.1 3.9 1.3 31.2 11.4 41.3 15.2l7 2.7h76l22.5-8.4c12.4-4.5 23.4-8.8 24.5-9.4 1.1-.6 2.5-1 3.2-.9.7.2 1.5-.8 1.8-2 .3-1.3 7.9-43.5 17-93.8s16.8-92.7 17.1-94.3l.6-2.7-46.3.2-46.3.3-9.4 13c-5.1 7.1-9.8 14-10.3 15.3-1.1 2.8-7.9 12.1-10.6 14.5-2 1.8-2.3 1.4-17.9-20.5L97.5 8.5l-46.3-.3C25.8 8.1 5 8.2 5 8.4zm104.2 41.5c10.2 14.5 19.1 26.8 19.6 27.3.6.6 8.4-9.4 20.8-26.6l19.9-27.5 33.8-.1H237l-.5 2.2c-.3 1.3-7.2 38.9-15.3 83.5-8.2 44.7-15.1 81.6-15.5 81.9-.3.4-12.2 4.8-26.4 9.9-14.2 5.1-28.8 10.4-32.5 11.8-3.8 1.4-6.8 2.3-6.8 1.9 0-.4 2.9-16.9 6.5-36.6 3.6-19.8 6.4-36.3 6.3-36.8-.2-.4-5.3 6.3-11.4 14.9-6.1 8.7-11.5 15.8-12 15.7-.4 0-5.8-6.9-11.8-15.3-6-8.3-11-15-11.1-14.9-.1.2 2.7 16.6 6.3 36.6 3.5 19.9 6.3 36.5 6 36.7-.2.2-10.3-3.2-22.4-7.6-12-4.4-26.2-9.6-31.4-11.5-5.2-1.9-10.1-3.8-10.9-4.3-.9-.6-6.2-28-16.2-83.7C29.7 61.8 23 24.2 23 23.7c0-.4 15.2-.6 33.7-.5l33.8.3 18.7 26.4z"/><path d="M26 27c0 2.5 27.7 156.7 28.7 159.9.7 2 4.1 3.6 21.3 10.2 24.3 9.3 38.9 14.3 39.7 13.6.5-.6-.3-5.5-8.2-50.6-2.5-14.5-4.4-26.5-4.2-26.8.2-.2 6.2 7.6 13.2 17.3 10.5 14.5 13 17.4 14 16.2.7-.7 7-9.3 13.9-19.2 6.9-9.8 12.6-17.3 12.6-16.7 0 .6-3.2 18.7-7.1 40.2-3.8 21.5-6.8 39.3-6.6 39.5.5.5 58.9-20.5 60.1-21.7.5-.4 3.3-14 6.3-30.1s9.6-52.3 14.8-80.3c5.2-28.1 9.5-51.6 9.5-52.3 0-1-6.8-1.2-31.7-1l-31.8.3-20.1 28c-11.1 15.4-20.5 28-21 27.9-.5 0-7.8-9.9-16.2-22-8.4-12-17.3-24.7-19.7-28.2L89 25H57.5c-30.7 0-31.5.1-31.5 2zm72.7 24.5c27.2 38.9 29.8 42.5 30.8 42.4 1 0 5.2-5.8 29.8-40.9l14.3-20.5 25.7-.3c22.6-.2 25.7 0 25.7 1.3 0 .9-1.3 8.4-3 16.8-1.6 8.3-5.2 28.5-8 44.7-4.9 28.8-15.9 88.2-16.3 88.7-.5.5-45 16.3-45.3 16.1-.3-.4 8.3-51.5 13-77.2 2-10.9 3.5-20 3.3-20.2-.1-.2-6.6 8.5-14.2 19.4-7.7 10.8-16.4 23-19.4 27.1l-5.4 7.5-2.7-3.2c-1.4-1.7-10.2-14-19.5-27.3s-17.1-23.7-17.3-23.1c-.1.5 1.5 10.6 3.7 22.3 5.4 28.3 13.1 74.2 12.6 74.7-.4.5-43.6-14.8-44.8-15.8-1-.8-4.5-18.9-10.8-56-4-23.5-15.4-85.7-17.3-94.3-.4-1.6 1.2-1.7 25.7-1.5l26.1.3 13.3 19z"/><path d="M36.1 35.6c0 1.1.3 1.4.6.6.3-.7.2-1.6-.1-1.9-.3-.4-.6.2-.5 1.3zM84.5 36c1 1.1 2 2 2.2 2 .2 0-.2-.9-.9-2s-1.7-2-2.2-2c-.5 0-.1.9.9 2zM222.2 36c0 1.4.2 1.9.5 1.2.2-.6.2-1.8 0-2.5-.3-.6-.5-.1-.5 1.3zM155 195.6c0 1.6.9 1.8 2.8.5 1-.6.9-1-.7-1.4-1.4-.3-2.1 0-2.1.9zM2.4 224.3c-.2.7-.3 7.1-.2 14.3l.3 12.9 10.9.3c8.8.2 11.2 0 12.6-1.3 1.6-1.4 1.8-1.4 2.3 0 .5 1.2 2.4 1.5 9.6 1.5h8.9l2.1-3.4c3.2-5.2 2.9-5.6-5.1-5.7-5.1-.1-6.3-.4-4-.8 2.1-.4 3.9-1.7 5.2-3.6 3-4.6 2.6-5.4-3.2-5.8-4.6-.3-4.3-.4 2-.5 8-.2 8.3-.6 5.1-5.9l-2.1-3.4-9.2.3-9.1.3-.3 9.4-.3 9.3-3.7-6.1c-2-3.4-5-7.7-6.5-9.6-2.6-3.3-3.1-3.5-8.8-3.5-4 0-6.1.4-6.5 1.3zm12 13.7c1.4 2.2 2.6 4.2 2.6 4.5 0 .3-1.3.5-3 .5-2.9 0-3-.2-3-4.5 0-2.5.2-4.5.4-4.5s1.5 1.8 3 4z"/><path d="M53.2 224.2c-1.7 1.7-1.7 24.9 0 26.6.7.7 4.3 1.2 9.2 1.2 7.5 0 8.2-.2 10.3-2.7l2.2-2.8.1 2.7c0 2.6.3 2.8 4 2.8h4v-4.5c0-2.5.4-4.5.9-4.5s2.2 2 3.8 4.5l2.8 4.5h15.4c13 0 15.7-.3 17.3-1.7 1.7-1.5 1.9-1.5 3.1.1 1 1.4 2.8 1.6 11.7 1.4l10.5-.3v-27l-4.2-.3-4.3-.3V243h-6v-19.1l-4.2.3-4.3.3-.5 8.5-.5 8.5-1.7-3.2c-1-1.8-1.8-5.3-1.8-8.1 0-3-.5-5.4-1.4-6.1-.9-.8-4.7-1.1-10.7-.9l-9.4.3-.5 12.2-.5 12.2-3.9-5.9-3.8-6 3.1-4.8c1.7-2.7 3.1-5.4 3.1-6 0-.7-1.7-1.2-4.5-1.2-3.6 0-4.7.4-6.1 2.5-.9 1.4-2 2.5-2.5 2.5s-.9-1.1-.9-2.5c0-2.3-.4-2.5-4-2.5-3.5 0-4 .3-4 2.2-.1 2.2-.1 2.2-2.3-.5-2.1-2.5-2.8-2.7-10.3-2.7-4.9 0-8.5.5-9.2 1.2zM75 237.5v5.5H61v-11h14v5.5zm36.3-4.8c-.7.2-1.9.2-2.5 0-.7-.3-.2-.5 1.2-.5s1.9.2 1.3.5zm1.5 10c-1 .2-2.6.2-3.5 0-1-.3-.2-.5 1.7-.5s2.7.2 1.8.5zM182 233v10h-14v-19h-8v28h8.9c8.6 0 9-.1 11-2.7l2-2.8.1 2.7v2.8h11.2c9 0 11.5-.3 13-1.7 1.7-1.5 1.8-1.5 1.8 0s1.3 1.7 9.4 1.7h9.4l2.1-3.4c3.2-5.2 2.9-5.6-5.1-5.7-5.1-.1-6.3-.4-4-.8 2.1-.4 3.9-1.7 5.2-3.6 3-4.6 2.6-5.4-3.2-5.8-4.6-.3-4.3-.4 2-.5 8-.2 8.3-.6 5.1-5.8l-2.1-3.4H208v19.4l-3.5-5.8c-1.9-3.1-4.8-7.5-6.5-9.7-3.1-3.8-3.3-3.9-9.6-3.9H182v10zm12.4 5c1.4 2.2 2.6 4.2 2.6 4.5 0 .3-1.3.5-3 .5-2.9 0-3-.2-3-4.5 0-2.5.2-4.5.4-4.5s1.5 1.8 3 4zM232 237.6v14.5l4.3-.3c4.1-.3 4.2-.4 4.7-4.3l.5-4 2.9 4.3c2.6 3.9 3.2 4.2 7.2 4.2 4.9 0 5.6-1.3 2.8-5.6-1.3-1.9-1.4-2.8-.5-3.7 1.5-1.5 1.5-16.9-.1-18.5-.8-.8-4.8-1.2-11.5-1.2H232v14.6zm14-4.1c0 .9-.9 1.5-2.5 1.5s-2.5-.6-2.5-1.5.9-1.5 2.5-1.5 2.5.6 2.5 1.5zM150 238v14.1l4.3-.3 4.2-.3v-27l-4.2-.3-4.3-.3V238z"/></svg>